<svg id="Layer_1_1_" enable-background="new 0 0 64 64" height="512" viewBox="0 0 64 64" width="512" xmlns="http://www.w3.org/2000/svg"><path d="m32 61c16.016 0 29-12.984 29-29s-12.984-29-29-29-29 12.984-29 29 12.984 29 29 29zm0-54c13.807 0 25 11.193 25 25s-11.193 25-25 25-25-11.193-25-25 11.193-25 25-25z" fill="#bebebe"/><path d="m32 57c13.807 0 25-11.193 25-25s-11.193-25-25-25-25 11.193-25 25 11.193 25 25 25z" fill="#f5f5f5"/><path d="m18 46 14-10c-2.209 0-4-1.791-4-4z" fill="#fdb62f"/><path d="m36 32 10-14-14 10c2.209 0 4 1.791 4 4z" fill="#fdb62f"/><circle cx="32" cy="32" fill="#bebebe" r="4"/><path d="m32 2c-16.542 0-30 13.458-30 30s13.458 30 30 30 30-13.458 30-30-13.458-30-30-30zm0 58c-15.439 0-28-12.561-28-28s12.561-28 28-28 28 12.561 28 28-12.561 28-28 28z"/><path d="m32 6c-14.336 0-26 11.664-26 26s11.664 26 26 26 26-11.664 26-26-11.664-26-26-26zm0 50c-13.233 0-24-10.767-24-24s10.767-24 24-24 24 10.767 24 24-10.767 24-24 24z"/><path d="m31 14.851 2.219 2.774c.194.242.483.375.781.375.111 0 .223-.019.331-.056.401-.141.669-.519.669-.944v-6h-2v3.149l-2.219-2.774c-.266-.333-.713-.458-1.112-.319-.401.141-.669.519-.669.944v6h2z"/><path d="m47 29v6c0 .552.448 1 1 1h4v-2h-3v-1h3v-2h-3v-1h3v-2h-4c-.552 0-1 .448-1 1z"/><path d="m34.469 46.577c-.593-.589-1.417-.579-2.212-.576l-.257.001-.256-.001c-.796-.006-1.62-.013-2.212.576-.353.35-.532.829-.532 1.425 0 1.654 1.346 3 3 3 .546 0 .991.439 1 .983-.188.023-.501.021-.727.019l-.273-.002-.273.001c-.291.001-.731.006-.856-.046.02.008.042.024.063.044h-1.934c0 .596.179 1.076.531 1.426.593.588 1.409.578 2.211.576l.258-.001.257.001c.082 0 .164.001.246.001.716 0 1.434-.049 1.965-.577.353-.35.531-.83.531-1.426 0-1.654-1.346-3-3-3-.546 0-.991-.439-1-.983.189-.023.503-.02.728-.019l.273.003.272-.001c.292-.002.732-.005.857.046-.02-.008-.042-.024-.063-.044h1.934c0-.597-.179-1.076-.531-1.426z"/><path d="m43 33v-2h-5.057l8.871-12.419c.284-.397.239-.942-.107-1.288-.345-.345-.891-.391-1.288-.107l-.849.606c-.249-.221-.483-.456-.743-.663l-1.246 1.564c.113.09.212.195.323.288l-9.904 7.076v-5.057h-2v6.101c-1.956.399-3.5 1.943-3.899 3.899h-6.101v2h5.057l-7.226 10.116c-.161-.185-.335-.356-.487-.547l-1.566 1.244c.27.339.571.65.863.97l-.455.636c-.284.397-.239.942.107 1.288.193.194.45.293.707.293.202 0 .406-.062.581-.186l12.419-8.871v5.057h2v-6.101c1.956-.399 3.5-1.943 3.899-3.899zm-6.587-3.299c-.474-.905-1.209-1.64-2.114-2.114l7.399-5.285zm-8.826 4.598c.474.905 1.209 1.64 2.114 2.114l-7.399 5.285zm4.413.701c-1.654 0-3-1.346-3-3s1.346-3 3-3 3 1.346 3 3-1.346 3-3 3z"/><path d="m18.383 21.382-1.562-1.25c-.441.551-.857 1.134-1.236 1.732l1.69 1.069c.34-.536.712-1.058 1.108-1.551z"/><path d="m48.04 26.355 1.887-.663c-.234-.667-.51-1.329-.819-1.967l-1.8.872c.276.571.523 1.162.732 1.758z"/><path d="m23.369 49.1c.639.311 1.3.586 1.965.821l.666-1.886c-.595-.21-1.186-.457-1.758-.734z"/><path d="m45.277 21.382c.396.494.768 1.016 1.107 1.552l1.69-1.069c-.379-.599-.795-1.182-1.236-1.732z"/><path d="m37.66 48.035.666 1.886c.665-.235 1.326-.511 1.965-.821l-.873-1.799c-.572.277-1.164.524-1.758.734z"/><path d="m46.417 41.012 1.694 1.063c.376-.599.722-1.227 1.028-1.866l-1.804-.865c-.272.571-.582 1.132-.918 1.668z"/><path d="m44.05 43.992 1.416 1.412c.498-.499.974-1.034 1.417-1.591l-1.566-1.244c-.397.498-.823.976-1.267 1.423z"/><path d="m41.081 46.374 1.07 1.689c.598-.378 1.181-.795 1.732-1.238l-1.252-1.56c-.493.397-1.015.77-1.55 1.109z"/><path d="m24.301 16.67-.867-1.802c-.637.306-1.265.653-1.865 1.029l1.063 1.694c.538-.336 1.099-.646 1.669-.921z"/><path d="m21.078 18.694-1.246-1.564c-.556.442-1.091.919-1.589 1.418l1.413 1.415c.446-.446.925-.873 1.422-1.269z"/><path d="m42.09 15.898c-.6-.376-1.228-.723-1.865-1.029l-.867 1.802c.57.274 1.131.584 1.668.922z"/><path d="m16.352 24.598-1.8-.872c-.309.638-.584 1.3-.819 1.967l1.887.663c.209-.597.456-1.188.732-1.758z"/><path d="m19.776 46.826c.552.443 1.135.859 1.732 1.238l1.07-1.689c-.535-.339-1.057-.712-1.551-1.108z"/><path d="m16.323 39.343-1.804.865c.307.639.652 1.267 1.028 1.866l1.694-1.063c-.335-.535-.644-1.096-.918-1.668z"/><path d="m16.071 35.372c.153.38.521.628.929.628h.029c.419-.012.787-.285.919-.683l2-6-1.897-.633-1.137 3.41-.986-2.465c-.152-.38-.519-.629-.928-.629s-.776.249-.929.628l-.986 2.465-1.137-3.41-1.897.633 2 6c.133.398.5.671.919.683.426.023.802-.238.958-.628l1.072-2.679z"/></svg>